<svg width="593" height="344" viewBox="0 0 593 344" fill="none" xmlns="http://www.w3.org/2000/svg">
<path fill-rule="evenodd" clip-rule="evenodd" d="M582.629 23.2169C593.566 37.7531 591.499 52.7266 592.144 56.6421L591.547 62.2886C590.635 74.5206 581.138 89.2244 570.106 97.223L520.799 132.354C501.835 145.843 475.8 145.511 457.308 131.566L457.206 131.622C461.736 145.763 458.95 154.316 459.158 156.518C458.233 168.789 448.76 183.414 437.716 191.452L388.37 226.571C368.047 241.029 340.792 239.308 322.442 223.865L322.519 224.187C327.337 241.71 319.883 254.876 319.041 258.738L316.404 263.738C311.037 274.782 296.826 284.966 283.561 288.323L224.72 302.868C202.122 308.475 178.017 298.566 165.949 278.857L165.847 278.912C164.867 293.693 159.111 300.683 158.494 302.77C153.115 313.853 138.927 323.958 125.65 327.355L66.8215 341.86C38.3104 348.887 9.06372 331.55 1.81845 303.077C-0.895131 287.289 -0.514711 275.842 7.86641 262.007C15.113 249.978 26.7616 241.348 40.4751 237.781L100.426 222.965C116.31 220.04 121.832 221.972 134.622 226.61L139.635 229.248L157.182 245.952C157.484 246.384 157.774 246.855 158.036 247.275L158.138 247.22C159.628 224.326 175.854 204.419 198.386 198.75L257.215 184.244C270.96 180.858 285.579 183.082 297.545 190.216C299.797 191.31 301.983 192.77 304.139 194.477L304.599 194.228C303.08 188.042 302.892 181.564 304.162 173.933C306.462 160.056 314.089 147.754 325.515 139.443L375.748 103.644C389.431 95.1018 395.254 94.8539 408.884 94.4734L414.542 95.0757L437.004 104.156C437.431 104.454 437.885 104.802 438.273 105.088L438.387 104.994C431.334 83.1281 439.122 58.6713 457.94 45.0963L507.235 10.0045C518.755 1.8076 533.195 -1.45887 546.916 0.756317C559.133 1.67071 573.967 11.151 581.943 22.2005L582.629 23.2169ZM282.148 245.348C273.758 249.632 263.41 246.316 259.119 237.897C254.827 229.479 258.125 219.193 266.555 214.921C269.484 213.432 272.373 211.931 275.224 210.419C273.52 210.087 271.769 209.912 270.011 209.906C269.073 209.885 268.112 209.944 267.179 210.053L267.088 210.069C266.115 210.167 265.119 210.343 264.139 210.61L263.765 210.714L205.44 225.111C200.535 226.315 196.24 228.942 192.91 232.367C192.232 233.066 191.581 233.815 191.072 234.521C190.512 235.255 189.928 236.067 189.435 236.863L189.212 237.182L189.201 237.222L189.189 237.261C188.633 238.124 188.184 239.062 187.736 240L199.726 237.037L200.049 236.961L200.462 236.869L200.513 236.841C204.674 235.974 208.907 236.754 212.313 238.874C215.732 240.955 218.478 244.293 219.613 248.439L219.641 248.49L219.689 248.761L219.717 248.812L219.745 248.863L219.733 248.903L219.761 248.954L219.833 249.146C221.228 255.168 219.046 261.244 214.65 265.082C213.778 265.852 212.812 266.508 211.739 267.09C210.717 267.644 209.639 268.097 208.517 268.407L208.466 268.435L208.376 268.451L208.325 268.479L208.002 268.554L207.962 268.543L195.74 271.566L196.903 272.423L196.942 272.435L198.049 273.19L198.302 273.351L198.341 273.362C202.424 275.811 207.171 277.171 212.065 277.163C213.003 277.183 213.965 277.125 214.989 276.999C215.883 276.878 216.918 276.714 217.938 276.458L218.312 276.355L276.688 261.93C281.593 260.725 285.876 258.138 289.218 254.673C289.908 253.936 290.547 253.225 291.096 252.531C291.656 251.798 292.239 250.985 292.732 250.189L292.806 250.083L292.916 249.858C295.106 246.224 296.418 242.074 296.67 237.739C291.918 240.315 287.098 242.829 282.148 245.348ZM327.111 180.204C331.806 177.096 336.484 173.898 341.159 170.57C348.841 165.049 359.565 166.807 365.094 174.521C370.635 182.196 368.848 192.885 361.165 198.406C355.564 202.402 349.919 206.256 344.179 209.996C346.746 211.183 349.457 212.028 352.194 212.494C359.841 213.771 367.948 212.185 374.653 207.36L423.618 172.513C430.351 167.739 434.487 160.57 435.795 152.95C436.351 149.475 436.342 145.876 435.711 142.35L420.062 153.48C414.41 157.503 406.526 156.157 402.488 150.511C398.45 144.864 399.789 136.997 405.429 133.013L421.078 121.883C417.945 120.143 414.53 118.92 411.009 118.35C403.361 117.074 395.243 118.698 388.55 123.484L387.953 123.907L339.585 158.331L339.317 158.509C332.715 163.279 328.653 170.341 327.407 177.894C327.305 178.677 327.213 179.421 327.111 180.204ZM107.972 276.402C109.638 283.103 116.527 287.237 123.238 285.582L141.889 280.992C141.192 284.511 139.903 287.854 138.068 290.866C134.056 297.472 127.557 302.615 119.555 304.573L61.1786 318.999C53.1643 320.996 45.0156 319.529 38.3921 315.516C31.8754 311.577 26.7978 305.238 24.7165 297.473L24.5961 297.009C22.5846 289.007 24.0444 280.876 28.0571 274.27C32.0071 267.731 38.4032 262.643 46.2991 260.61L46.5824 260.523L104.262 246.277L104.959 246.098C112.961 244.14 121.11 245.607 127.745 249.58C130.804 251.427 133.542 253.777 135.813 256.547L117.151 261.177C110.478 262.843 106.305 269.702 107.972 276.402ZM492.364 106.608L482.101 113.892L483.494 114.261L483.533 114.273L484.87 114.54L484.91 114.551L485.237 114.605L485.276 114.617C489.978 115.407 494.921 114.942 499.453 113.114C500.326 112.772 501.223 112.352 502.142 111.854C502.96 111.41 503.801 110.888 504.665 110.287L504.983 110.082L553.909 75.2233C558.037 72.2908 561.061 68.3038 562.885 63.8765C563.283 62.9665 563.602 62.0332 563.846 61.2064C564.102 60.3402 564.303 59.3719 564.503 58.4036L564.538 58.2855L564.568 58.0376C565.354 53.3463 564.882 48.4115 563.045 43.8864C562.702 43.0144 562.268 42.1584 561.862 41.3534L561.807 41.2513C561.334 40.3836 560.81 39.5437 560.246 38.692L560.163 38.5389L560.079 38.3858L559.889 38.1583C556.962 34.1247 553.031 31.1644 548.621 29.3896L548.542 29.3663C547.618 29.0075 546.734 28.6605 545.893 28.4548C545.025 28.1982 544.055 27.9969 543.124 27.8074L542.966 27.7607L542.757 27.7417C538.056 26.9513 533.112 27.4165 528.581 29.2452C527.708 29.5864 526.811 30.0064 526.044 30.422L525.942 30.4774C525.074 30.9484 524.233 31.4705 523.38 32.0319L523.062 32.2375L474.148 67.0566C470.019 69.9892 466.996 73.9761 465.172 78.4034C464.813 79.3251 464.467 80.2073 464.25 81.0852C463.994 81.9514 463.794 82.9197 463.593 83.888L463.54 84.2147L463.528 84.254L463.516 84.2934C463.344 85.3127 463.222 86.3044 463.168 87.3587L473.216 80.2249L473.494 80.0076L473.864 79.7742L473.915 79.7465C477.478 77.4177 481.668 76.6011 485.624 77.2996C489.591 77.9588 493.337 80.0937 495.93 83.5148L495.97 83.5265L496.12 83.7423L496.148 83.7934L496.176 83.8444L496.164 83.8838L496.204 83.8954L496.327 84.0602C499.838 89.1657 500.038 95.604 497.342 100.801C496.819 101.845 496.15 102.803 495.362 103.727C494.625 104.622 493.793 105.404 492.843 106.15L492.792 106.178L492.69 106.233L492.678 106.273L492.399 106.49L492.364 106.608Z" fill="white"/>
</svg>
