<svg width="23" height="23" viewBox="0 0 23 23" fill="none" xmlns="http://www.w3.org/2000/svg">
<path d="M3.27353 0.567291C2.52512 -0.181115 1.30971 -0.181115 0.561304 0.567291C-0.187101 1.3157 -0.187101 2.53111 0.561304 3.27951L8.78778 11.5L0.567291 19.7265C-0.181115 20.4749 -0.181115 21.6903 0.567291 22.4387C1.3157 23.1871 2.53111 23.1871 3.27951 22.4387L11.5 14.2122L19.7265 22.4327C20.4749 23.1811 21.6903 23.1811 22.4387 22.4327C23.1871 21.6843 23.1871 20.4689 22.4387 19.7205L14.2122 11.5L22.4327 3.27353C23.1811 2.52512 23.1811 1.30971 22.4327 0.561304C21.6843 -0.187101 20.4689 -0.187101 19.7205 0.561304L11.5 8.78778L3.27353 0.567291Z" fill="white"/>
</svg>
