<svg width="38" height="36" viewBox="0 0 38 36" fill="none" xmlns="http://www.w3.org/2000/svg">
<path d="M20.4844 0.897255C20.2012 0.349313 19.6279 0 19.0063 0C18.3847 0 17.8114 0.349313 17.5282 0.897255L12.4447 10.7739L1.4005 12.5136C0.785787 12.6095 0.274673 13.041 0.0812788 13.6301C-0.112116 14.2191 0.0467443 14.8629 0.481882 15.3013L8.38343 23.1437L6.64288 34.0957C6.54618 34.7053 6.80173 35.3217 7.30594 35.6847C7.81015 36.0477 8.47322 36.1025 9.03268 35.8217L19.0063 30.7943L28.973 35.8217C29.5256 36.1025 30.1956 36.0477 30.6998 35.6847C31.204 35.3217 31.4595 34.7121 31.3628 34.0957L29.6154 23.1437L37.5169 15.3013C37.959 14.8629 38.1109 14.2191 37.9175 13.6301C37.7241 13.041 37.2199 12.6095 36.5983 12.5136L25.561 10.7739L20.4844 0.897255Z" fill="white"/>
</svg>
